<svg width="16" height="16" viewBox="0 0 16 16" fill="none" xmlns="http://www.w3.org/2000/svg">
<path fill-rule="evenodd" clip-rule="evenodd" d="M10.8702 9.69505C12.6712 7.3261 12.4896 3.93279 10.3257 1.77034C7.96352 -0.590113 4.13374 -0.590113 1.7716 1.77034C-0.590534 4.13079 -0.590534 7.95784 1.7716 10.3183C3.93586 12.481 7.33217 12.6622 9.70285 10.8618L14.0404 15.196L14.1248 15.2698C14.4481 15.5156 14.9116 15.4911 15.2068 15.196C15.5289 14.8741 15.5289 14.3522 15.2068 14.0304L10.8702 9.69505ZM2.54935 2.54748C4.482 0.616205 7.61546 0.616205 9.54811 2.54748C11.4808 4.47876 11.4808 7.60998 9.54811 9.54126C7.61546 11.4725 4.482 11.4725 2.54935 9.54126C0.61669 7.60998 0.61669 4.47876 2.54935 2.54748Z" fill="white" fill-opacity="0.5"/>
</svg>
